<svg width="526" height="120" viewBox="0 0 526 120" fill="none" xmlns="http://www.w3.org/2000/svg">
<path d="M157.156 77.3598C152.417 77.3598 148.363 76.2717 144.958 74.0955C141.554 71.9194 138.939 68.9183 137.096 65.0925C135.271 61.2666 134.341 56.8791 134.341 51.9125C134.341 48.2095 134.938 44.8048 136.148 41.6985C137.359 38.5922 139.027 35.8895 141.15 33.5554C143.274 31.2388 145.748 29.4487 148.556 28.1676C151.364 26.8864 154.365 26.2546 157.559 26.2546C160.385 26.2546 162.719 26.5705 164.544 27.1848C166.369 27.8166 167.756 28.3606 168.686 28.8169C169.283 29.0977 169.844 29.3434 170.353 29.554C170.862 29.7646 171.213 29.8699 171.389 29.8699C171.897 29.8699 172.319 29.6769 172.635 29.2732C172.951 28.8696 173.161 28.2027 173.266 27.2199H175.004L174.863 35.363L175.004 43.5061H173.266C172.564 38.6799 170.897 34.9594 168.265 32.3093C165.632 29.6769 162.122 28.3431 157.77 28.3431C154.716 28.3431 152.136 28.9573 150.048 30.1858C147.959 31.4143 146.292 33.1166 145.046 35.2577C143.8 37.3988 142.87 39.9084 142.291 42.7691C141.712 45.6121 141.431 48.6658 141.431 51.9125C141.431 56.7914 141.957 60.9507 142.993 64.4256C144.028 67.9005 145.748 70.5856 148.135 72.4634C150.522 74.3412 153.733 75.2714 157.77 75.2714C160.788 75.2714 163.403 74.5694 165.632 73.183C167.861 71.7965 169.651 69.9362 171.02 67.6197C172.389 65.3031 173.214 62.7583 173.495 59.9679H175.162L175.021 68.4445L175.232 76.5876H173.565L173.354 75.8154C173.161 75.2187 172.951 74.6396 172.687 74.1131C172.424 73.5866 172.003 73.3058 171.406 73.3058C171.09 73.3058 170.704 73.3935 170.265 73.5866C169.827 73.7796 169.335 74.0078 168.774 74.2886C167.563 74.8853 165.983 75.5522 164.053 76.2717C162.105 76.9913 159.806 77.3423 157.173 77.3423L157.156 77.3598Z" fill="black"/>
<path d="M191.29 77.3598C189.061 77.3598 187.218 76.7982 185.762 75.6574C184.305 74.5167 183.568 72.9372 183.568 70.9014C183.568 68.8656 184.48 67.0404 186.288 65.4434C188.096 63.8464 190.202 62.3897 192.624 61.0911C194.431 60.0732 196.239 59.1957 198.047 58.441C199.854 57.7039 201.416 57.0721 202.715 56.5632V54.3344C202.715 51.7896 202.241 49.8767 201.293 48.6307C200.346 47.3846 198.555 46.7528 195.905 46.7528C194.659 46.7528 193.431 46.9108 192.22 47.2442C191.009 47.5601 190.412 48.1744 190.412 49.0519C190.412 49.2449 190.447 49.4379 190.518 49.6836C190.588 49.9118 190.64 50.1399 190.693 50.3856C190.921 50.9823 191.044 51.6141 191.044 52.2635C191.044 53.141 190.728 53.8254 190.114 54.3168C189.482 54.8082 188.728 55.0363 187.85 55.0363C187.008 55.0363 186.323 54.7205 185.762 54.1062C185.2 53.4744 184.937 52.7198 184.937 51.8423C184.937 50.175 185.569 48.8413 186.85 47.8409C188.131 46.8406 189.693 46.121 191.553 45.6823C193.396 45.2435 195.186 45.0154 196.906 45.0154C200.609 45.0154 203.329 45.8753 205.049 47.5952C206.769 49.3151 207.629 52.1231 207.629 56.0016V68.5146C207.629 70.5504 207.769 72.1299 208.085 73.2355C208.383 74.3412 209.068 74.9028 210.138 74.9028C210.84 74.9028 211.437 74.6571 211.946 74.1306C212.455 73.6217 212.806 73.06 212.981 72.4634L214.227 72.9547C213.859 74.3061 213.192 75.3591 212.244 76.1488C211.297 76.9386 209.98 77.3247 208.313 77.3247C206.277 77.3247 204.873 76.728 204.101 75.5521C203.329 74.3763 202.908 72.8144 202.82 70.8663C201.521 72.9548 199.872 74.5518 197.889 75.6574C195.888 76.7631 193.712 77.3247 191.342 77.3247L191.29 77.3598ZM188.991 70.5504C188.991 71.8491 189.377 72.8846 190.131 73.6392C190.904 74.4114 192.027 74.7799 193.501 74.7799C194.852 74.7799 196.134 74.464 197.362 73.8147C198.591 73.1654 199.661 72.3405 200.591 71.3402C201.521 70.3398 202.223 69.2693 202.68 68.111V57.9672C201.153 58.6165 199.591 59.3712 197.994 60.2311C196.397 61.091 194.905 62.0563 193.536 63.1093C192.167 64.1798 191.062 65.3206 190.237 66.5491C189.394 67.7775 188.991 69.1113 188.991 70.5504Z" fill="black"/>
<path d="M216.123 76.8155V75.2185L217.229 75.0781C218.58 74.885 219.598 74.6744 220.318 74.4112C221.037 74.1655 221.529 73.5688 221.81 72.6737C222.09 71.7787 222.231 70.2694 222.231 68.181V53.7199C222.231 51.9123 221.985 50.596 221.511 49.7536C221.02 48.9288 220.318 48.4023 219.388 48.1917C218.457 47.9811 217.369 47.8758 216.123 47.8758V46.2788C218.019 46.2788 219.844 46.2086 221.616 46.0682C223.371 45.9278 225.214 45.7172 227.11 45.4364L226.337 53.4391H226.618C227.636 50.3328 228.882 48.1566 230.374 46.9105C231.848 45.6645 233.463 45.0327 235.165 45.0327C237.113 45.0327 238.412 45.5066 239.061 46.4542C239.71 47.4019 240.044 48.3145 240.044 49.2096C240.044 50.2275 239.745 51.0699 239.131 51.7192C238.535 52.3685 237.71 52.702 236.692 52.702C235.674 52.702 234.972 52.4739 234.463 52C233.954 51.5437 233.691 50.9997 233.691 50.403C233.691 49.9467 233.743 49.4904 233.866 49.0867C233.989 48.6655 234.042 48.3496 234.042 48.1039C234.042 47.6476 233.726 47.4019 233.059 47.4019C232.392 47.4019 231.725 47.7003 231.006 48.297C230.286 48.8937 229.672 49.7361 229.163 50.8066C228.742 51.6841 228.356 52.6669 227.987 53.7199C227.619 54.7904 227.32 55.9487 227.074 57.1948V68.181C227.074 70.2694 227.215 71.7611 227.496 72.6737C227.776 73.5863 228.268 74.1655 228.987 74.4112C229.707 74.6744 230.742 74.885 232.076 75.0781L233.182 75.2185V76.8155L224.635 76.6049L216.088 76.8155H216.123Z" fill="black"/>
<path d="M242.465 76.8156V75.2186L243.57 75.0782C244.922 74.8852 245.94 74.6745 246.659 74.4113C247.379 74.1656 247.87 73.5689 248.151 72.6739C248.432 71.7788 248.572 70.2695 248.572 68.1811V34.2397C248.572 31.8353 248.081 30.291 247.08 29.6065C246.08 28.9396 244.711 28.6062 242.939 28.6062H242.447V27.0091C244.343 27.0091 246.185 26.9565 247.94 26.8336C249.695 26.7108 251.538 26.5002 253.433 26.1667V68.1636C253.433 70.252 253.574 71.7437 253.855 72.6563C254.135 73.5689 254.627 74.148 255.346 74.3937C256.066 74.657 257.101 74.8676 258.435 75.0606L259.541 75.201V76.7981L250.994 76.5875L242.447 76.7981L242.465 76.8156Z" fill="black"/>
<path d="M271.827 77.3598C269.598 77.3598 267.756 76.7982 266.299 75.6574C264.842 74.5167 264.105 72.9372 264.105 70.9014C264.105 68.8656 265.018 67.0404 266.825 65.4434C268.633 63.8464 270.739 62.3897 273.161 61.0911C274.969 60.0732 276.776 59.1957 278.584 58.441C280.391 57.7039 281.953 57.0721 283.252 56.5632V54.3344C283.252 51.7896 282.778 49.8767 281.831 48.6307C280.883 47.3846 279.093 46.7528 276.443 46.7528C275.197 46.7528 273.968 46.9108 272.757 47.2442C271.546 47.5601 270.95 48.1744 270.95 49.0519C270.95 49.2449 270.985 49.4379 271.055 49.6836C271.125 49.9118 271.178 50.1399 271.23 50.3856C271.459 50.9823 271.581 51.6141 271.581 52.2635C271.581 53.141 271.266 53.8254 270.651 54.3168C270.019 54.8082 269.265 55.0363 268.387 55.0363C267.545 55.0363 266.861 54.7205 266.299 54.1062C265.737 53.4744 265.474 52.7198 265.474 51.8423C265.474 50.175 266.106 48.8413 267.387 47.8409C268.668 46.8406 270.23 46.121 272.09 45.6823C273.933 45.2435 275.723 45.0154 277.443 45.0154C281.146 45.0154 283.866 45.8753 285.586 47.5952C287.306 49.3151 288.166 52.1231 288.166 56.0016V68.5146C288.166 70.5504 288.306 72.1299 288.622 73.2355C288.921 74.3412 289.605 74.9028 290.676 74.9028C291.378 74.9028 291.974 74.6571 292.483 74.1306C292.992 73.6217 293.343 73.06 293.519 72.4634L294.765 72.9547C294.396 74.3061 293.729 75.3591 292.782 76.1488C291.834 76.9386 290.518 77.3247 288.85 77.3247C286.815 77.3247 285.411 76.728 284.639 75.5521C283.866 74.3763 283.445 72.8144 283.357 70.8663C282.059 72.9548 280.409 74.5518 278.426 75.6574C276.425 76.7631 274.249 77.3247 271.88 77.3247L271.827 77.3598ZM269.528 70.5504C269.528 71.8491 269.914 72.8846 270.669 73.6392C271.441 74.4114 272.564 74.7799 274.038 74.7799C275.39 74.7799 276.671 74.464 277.899 73.8147C279.128 73.1654 280.198 72.3405 281.129 71.3402C282.059 70.3398 282.761 69.2693 283.217 68.111V57.9672C281.69 58.6165 280.128 59.3712 278.531 60.2311C276.934 61.091 275.442 62.0563 274.074 63.1093C272.705 64.1798 271.599 65.3206 270.774 66.5491C269.932 67.7775 269.528 69.1113 269.528 70.5504Z" fill="black"/>
<path d="M315.824 76.8156V75.0782L317.211 74.9378C318.825 74.7447 320.071 74.5166 320.931 74.2182C321.791 73.9199 322.37 73.2705 322.704 72.2702C323.02 71.2698 323.195 69.6377 323.195 67.3738V36.5036C323.195 34.187 323.037 32.5373 322.704 31.5721C322.37 30.5893 321.791 29.9575 320.931 29.6591C320.071 29.3608 318.825 29.1151 317.211 28.9396L315.824 28.7992V27.0618L326.108 27.2724H334.603C335.849 27.2724 337.323 27.325 338.99 27.4128C340.657 27.5005 342.342 27.7287 344.027 28.0797C345.712 28.4307 347.291 29.0098 348.748 29.8171C350.204 30.6244 351.38 31.7476 352.293 33.1516C353.188 34.5731 353.644 36.3807 353.644 38.6096C353.644 40.8384 353.153 42.5758 352.152 44.1027C351.152 45.6295 349.906 46.8931 348.397 47.8934C346.887 48.8938 345.325 49.666 343.693 50.2276C345.922 50.4206 348.011 50.9296 349.959 51.7544C351.907 52.5968 353.486 53.8779 354.715 55.6154C355.943 57.3528 356.557 59.687 356.557 62.6002C356.557 65.2854 356.031 67.5493 354.995 69.3745C353.942 71.1997 352.556 72.6387 350.784 73.6917C349.011 74.7272 347.081 75.4818 344.939 75.9557C342.798 76.412 340.657 76.6577 338.481 76.6577H326.108L315.824 76.8683V76.8156ZM336.691 29.1853H328.829V49.7011H338.077C340.956 49.7011 343.184 48.7709 344.781 46.9282C346.379 45.0679 347.186 42.295 347.186 38.5745C347.186 35.942 346.765 33.9413 345.94 32.59C345.097 31.2386 343.904 30.3436 342.36 29.8697C340.798 29.4135 338.92 29.1853 336.691 29.1853ZM334.603 74.657H338.499C340.815 74.657 342.851 74.3411 344.588 73.6917C346.326 73.0424 347.677 71.849 348.625 70.1116C349.573 68.3741 350.046 65.882 350.046 62.6353C350.046 59.3886 349.52 57.1247 348.449 55.5452C347.379 53.9657 345.764 52.9303 343.588 52.4213C341.412 51.9124 338.657 51.6491 335.322 51.6491H328.846V67.637C328.846 70.4275 329.32 72.2877 330.268 73.2354C331.215 74.1831 332.672 74.657 334.62 74.657H334.603Z" fill="black"/>
<path d="M379.109 77.3598C376.055 77.3598 373.388 76.6929 371.106 75.3766C368.842 74.0604 367.07 72.2177 365.788 69.8835C364.507 67.5318 363.875 64.8643 363.875 61.8457C363.875 58.599 364.577 55.7208 365.964 53.1936C367.35 50.6664 369.228 48.6658 371.562 47.2091C373.896 45.7525 376.494 45.0154 379.319 45.0154C382.882 45.0154 385.69 46.1561 387.691 48.4201C389.709 50.684 390.709 53.685 390.709 57.388C390.709 57.9496 390.692 58.4059 390.639 58.7745C390.586 59.143 390.551 59.4063 390.499 59.5467H369.491C369.439 60.196 369.421 60.8453 369.421 61.4947C369.421 63.9517 369.807 66.2332 370.597 68.3391C371.387 70.4451 372.58 72.1299 374.177 73.376C375.774 74.622 377.74 75.2538 380.056 75.2538C382.233 75.2538 384.163 74.6395 385.866 73.411C387.55 72.1826 388.867 70.3574 389.797 67.953L391.464 68.5848C389.516 74.4289 385.392 77.3422 379.091 77.3422L379.109 77.3598ZM379.319 46.7704C376.441 46.7704 374.212 47.7883 372.615 49.824C371.018 51.8598 370.036 54.5801 369.667 57.9672H378.495C380.583 57.9672 382.162 57.7215 383.251 57.2301C384.339 56.7387 385.076 56.142 385.479 55.4224C385.883 54.7029 386.076 54.0009 386.076 53.2989C386.076 51.2631 385.374 49.6661 383.988 48.5078C382.601 47.3495 381.039 46.7704 379.337 46.7704H379.319Z" fill="black"/>
<path d="M405.117 77.3598C402.888 77.3598 401.045 76.7982 399.589 75.6574C398.132 74.5167 397.395 72.9372 397.395 70.9014C397.395 68.8656 398.308 67.0404 400.115 65.4434C401.923 63.8464 404.029 62.3897 406.451 61.0911C408.258 60.0732 410.066 59.1957 411.874 58.441C413.681 57.7039 415.243 57.0721 416.542 56.5632V54.3344C416.542 51.7896 416.068 49.8767 415.12 48.6307C414.173 47.3846 412.383 46.7528 409.733 46.7528C408.487 46.7528 407.258 46.9108 406.047 47.2442C404.836 47.5601 404.239 48.1744 404.239 49.0519C404.239 49.2449 404.275 49.4379 404.345 49.6836C404.415 49.9118 404.468 50.1399 404.52 50.3856C404.748 50.9823 404.871 51.6141 404.871 52.2635C404.871 53.141 404.555 53.8254 403.941 54.3168C403.309 54.8082 402.555 55.0363 401.677 55.0363C400.835 55.0363 400.15 54.7205 399.589 54.1062C399.027 53.4744 398.764 52.7198 398.764 51.8423C398.764 50.175 399.396 48.8413 400.677 47.8409C401.958 46.8406 403.52 46.121 405.38 45.6823C407.223 45.2435 409.013 45.0154 410.733 45.0154C414.436 45.0154 417.156 45.8753 418.876 47.5952C420.596 49.3151 421.456 52.1231 421.456 56.0016V68.5146C421.456 70.5504 421.596 72.1299 421.912 73.2355C422.211 74.3412 422.895 74.9028 423.966 74.9028C424.668 74.9028 425.264 74.6571 425.773 74.1306C426.282 73.6217 426.633 73.06 426.809 72.4634L428.055 72.9547C427.686 74.3061 427.019 75.3591 426.071 76.1488C425.124 76.9386 423.808 77.3247 422.14 77.3247C420.105 77.3247 418.701 76.728 417.928 75.5521C417.156 74.3763 416.735 72.8144 416.647 70.8663C415.349 72.9548 413.699 74.5518 411.716 75.6574C409.715 76.7631 407.539 77.3247 405.17 77.3247L405.117 77.3598ZM402.818 70.5504C402.818 71.8491 403.204 72.8846 403.959 73.6392C404.731 74.4114 405.854 74.7799 407.328 74.7799C408.68 74.7799 409.961 74.464 411.189 73.8147C412.418 73.1654 413.488 72.3405 414.418 71.3402C415.349 70.3398 416.051 69.2693 416.507 68.111V57.9672C414.98 58.6165 413.418 59.3712 411.821 60.2311C410.224 61.091 408.732 62.0563 407.363 63.1093C405.994 64.1798 404.889 65.3206 404.064 66.5491C403.222 67.7775 402.818 69.1113 402.818 70.5504Z" fill="black"/>
<path d="M443.149 77.3596C440.13 77.3596 437.761 76.605 436.024 75.0957C434.286 73.5864 433.426 71.3575 433.426 68.3916V54.8958C433.426 52.8074 433.286 51.3156 433.005 50.4206C432.724 49.508 432.233 48.9288 431.513 48.648C430.794 48.3672 429.758 48.1566 428.424 48.0162L427.319 47.8758V46.2788L435.866 46.4894L438.305 46.4192V68.1108C438.305 70.3748 438.884 72.1122 440.042 73.3231C441.201 74.5341 442.78 75.1308 444.763 75.1308C446.483 75.1308 447.993 74.7447 449.309 73.99C450.625 73.2178 451.766 72.235 452.713 71.0417C453.661 69.8307 454.416 68.6022 454.977 67.3562V54.9133C454.977 52.8249 454.837 51.3332 454.556 50.4381C454.275 49.5255 453.784 48.9464 453.064 48.6656C452.345 48.3848 451.31 48.1742 449.976 48.0338L448.87 47.8934V46.2964L457.417 46.507L459.856 46.4368V68.9006C459.856 70.6731 460.084 71.9718 460.523 72.8317C460.962 73.6917 461.611 74.2533 462.471 74.5341C463.331 74.8149 464.384 74.9553 465.63 74.9553V76.5523C463.735 76.5523 461.997 76.5699 460.418 76.6225C458.838 76.6752 457.031 76.8858 454.995 77.2543V70.8662C454.539 71.6033 454.047 72.2526 453.538 72.8142C452.327 74.1655 450.871 75.2536 449.151 76.1136C447.431 76.9735 445.448 77.3947 443.166 77.3947L443.149 77.3596Z" fill="black"/>
<path d="M480.495 77.3597C478.231 77.3597 476.388 76.6753 474.966 75.3064C473.545 73.9375 472.843 71.7087 472.843 68.6023V48.0163H467.701V46.2789L469.579 46.1385C471.474 45.9981 472.931 45.2259 473.931 43.8044C474.931 42.4004 475.581 40.4173 475.914 37.855H477.722V46.2614H486.619V47.9988H477.722V68.8656C477.722 72.9547 479.161 74.9905 482.039 74.9905C483.25 74.9905 484.215 74.5868 484.952 73.7795C485.689 72.9722 486.374 71.9543 486.97 70.761L488.497 71.5331C488.216 72.2176 487.883 72.8669 487.479 73.4461C487.093 74.0252 486.707 74.5166 486.339 74.9378C485.549 75.8153 484.654 76.4471 483.653 76.8157C482.653 77.1842 481.6 77.3773 480.495 77.3773V77.3597Z" fill="black"/>
<path d="M491.831 97.0506C490.252 97.0506 489.076 96.6645 488.286 95.9098C487.496 95.1377 487.11 94.2953 487.11 93.3651C487.11 92.435 487.443 91.6628 488.128 91.031C488.795 90.3992 489.637 90.1008 490.673 90.1008C491.322 90.1008 491.831 90.2062 492.2 90.4167C492.568 90.6273 492.919 90.8379 493.235 91.0836C493.551 91.3293 493.937 91.5575 494.341 91.8207C494.762 92.0664 495.236 92.2068 495.797 92.2068C496.64 92.2068 497.5 91.8734 498.412 91.224C499.307 90.5747 500.255 89.2234 501.22 87.1876L505.801 77.307L494.253 52.0001C493.797 50.9296 493.288 50.0521 492.726 49.3676C492.164 48.6656 491.304 48.262 490.146 48.1216L488.549 47.911V46.314L495.78 46.5246L502.8 46.314V47.911L501.817 48.0514C499.869 48.3322 498.904 49.0517 498.904 50.21C498.904 50.7716 499.167 51.5965 499.676 52.7197L508.363 71.7788L517.05 53.0707C517.559 51.9124 517.822 51.0173 517.822 50.3504C517.822 49.1044 516.682 48.3322 514.418 48.0514L513.312 47.911V46.314L519.981 46.5246L525.544 46.314V47.911L524.509 48.0514C522.789 48.2796 521.56 48.9113 520.788 49.9292C520.016 50.9471 519.314 52.1932 518.665 53.6849L502.958 87.9598C502.22 89.5393 501.343 91.0134 500.343 92.4174C499.342 93.8039 498.166 94.9271 496.798 95.787C495.429 96.6469 493.779 97.0681 491.831 97.0681V97.0506Z" fill="black"/>
<path d="M48.6262 59.4765C48.6964 59.3186 44.7828 59.1606 44.7477 59.1606C39.1668 59.1606 33.0069 59.9504 27.5839 58.3709C17.8438 55.4927 10.7536 46.8757 8.5248 37.1356C6.29597 27.3603 8.84069 16.6373 15.7027 9.23129C22.0557 2.3693 29.5671 0.947766 38.3946 0.947766C38.9562 0.947766 41.9923 1.19346 42.2731 0.596768C42.3433 0.438819 38.4297 0.245769 38.3946 0.245769C29.8303 0.245769 21.1607 -0.245629 13.5967 4.52793C2.80355 11.3373 -2.02267 24.8858 0.78531 37.1356C3.38269 48.5079 12.4033 57.6514 24.0564 59.4063C30.7956 60.4242 37.9559 59.8626 44.7477 59.8626C45.3093 59.8626 48.3454 60.0908 48.6262 59.4941V59.4765Z" fill="black"/>
<path d="M98.7138 62.5477C90.7462 58.1778 81.2342 59.1606 72.4592 59.1606C71.8976 59.1606 68.8615 58.9149 68.5807 59.5116C68.5105 59.6695 72.4241 59.8625 72.4592 59.8625C75.8113 59.8625 79.3564 59.5116 82.6908 59.8625C89.3247 60.5645 95.5198 64.7414 99.5738 69.8835C108.173 80.8171 108.331 97.156 100.013 108.283C95.9936 113.653 89.6405 118.163 82.7785 118.865C80.0583 119.146 77.1451 118.865 74.4073 118.865H62.8595V0.526494C62.6138 0.0175485 55.3832 0 53.9442 0C53.0316 0 50.0656 0.157947 50.0656 0.491394C50.0656 0.719542 53.8037 0.70199 54.8567 0.70199V118.883H52.2769C51.7153 118.883 48.6792 118.637 48.3984 119.234C48.3282 119.392 52.2418 119.585 52.2769 119.585H72.389C78.8649 119.585 85.8673 120.181 92.2379 118.69C117.878 112.635 121.143 74.8326 98.7314 62.5652H98.7138V62.5477Z" fill="black"/>
</svg>
